<?xml version="1.0" standalone="no"?>
<!DOCTYPE svg PUBLIC "-//W3C//DTD SVG 20010904//EN"
 "http://www.w3.org/TR/2001/REC-SVG-20010904/DTD/svg10.dtd">
<svg version="1.0" xmlns="http://www.w3.org/2000/svg"
 width="500.000000pt" height="500.000000pt" viewBox="0 0 500.000000 500.000000"
 preserveAspectRatio="xMidYMid meet">
<metadata>
Created by potrace 1.14, written by Peter Selinger 2001-2017
</metadata>
<g transform="translate(0.000000,500.000000) scale(0.100000,-0.100000)"
fill="#000000" stroke="none">
<path d="M1765 3718 c-3 -24 -32 -275 -65 -558 -33 -283 -62 -532 -65 -552
l-5 -38 69 0 70 0 5 43 c4 23 17 172 31 331 14 159 26 290 27 292 2 1 72 -148
157 -332 l154 -335 120 3 119 3 76 183 76 183 73 -183 72 -183 139 -3 139 -3
159 355 c87 195 160 354 161 352 2 -2 63 -665 63 -690 0 -14 14 -16 104 -16
l104 0 -5 38 c-3 20 -35 287 -71 592 -56 463 -70 555 -83 558 -12 2 -76 -131
-269 -558 -140 -308 -257 -560 -260 -560 -4 0 -70 145 -148 323 -108 247 -145
322 -159 322 -12 0 -19 -11 -25 -36 -4 -20 -17 -60 -28 -90 -29 -73 -192 -442
-199 -451 -4 -4 -117 231 -251 522 -257 556 -272 581 -285 488z"/>
<path d="M1720 2405 l0 -75 55 0 c30 0 55 5 55 10 0 6 -20 10 -45 10 -38 0
-45 3 -45 19 0 16 8 20 38 23 20 2 37 8 37 13 0 6 -17 11 -37 13 -30 3 -38 7
-38 23 0 16 7 19 45 19 25 0 45 5 45 10 0 6 -25 10 -55 10 l-55 0 0 -75z"/>
<path d="M2001 2454 c-53 -67 9 -149 92 -121 42 14 32 27 -17 21 -39 -6 -46
-4 -61 19 -32 50 7 94 73 82 32 -6 34 -5 23 9 -8 10 -29 16 -51 16 -30 0 -43
-6 -59 -26z"/>
<path d="M2182 2457 c-28 -30 -29 -80 -2 -107 46 -46 140 -13 140 50 0 15 -9
39 -21 54 -27 35 -86 36 -117 3z m83 -3 c9 -4 21 -18 26 -32 21 -55 -48 -96
-93 -55 -47 43 5 111 67 87z"/>
<path d="M2370 2405 c0 -60 3 -75 15 -75 11 0 15 12 15 48 l0 47 26 -42 c14
-24 27 -43 29 -43 3 0 15 19 27 43 l23 42 3 -47 c5 -77 22 -55 22 27 0 42 -4
75 -10 75 -5 0 -19 -17 -29 -37 -37 -70 -36 -69 -67 -14 -41 73 -54 67 -54
-24z"/>
<path d="M2678 2455 c-14 -31 -4 -44 45 -61 18 -6 34 -19 36 -29 3 -16 -3 -17
-43 -13 -32 4 -46 2 -43 -5 9 -29 91 -26 107 3 15 28 2 49 -41 61 -28 9 -39
18 -39 32 0 17 5 19 41 14 28 -4 39 -2 36 6 -2 7 -22 13 -45 15 -37 3 -43 0
-54 -23z"/>
<path d="M2820 2470 c0 -5 11 -10 25 -10 24 0 25 -2 25 -65 0 -37 4 -65 10
-65 6 0 10 28 10 65 0 63 1 65 25 65 14 0 25 5 25 10 0 6 -27 10 -60 10 -33 0
-60 -4 -60 -10z"/>
<path d="M3000 2460 c-20 -20 -24 -36 -20 -75 5 -59 95 -79 137 -30 30 34 29
70 -2 100 -31 32 -86 34 -115 5z m94 -16 c19 -18 21 -65 4 -82 -31 -31 -98 -3
-98 40 0 49 61 76 94 42z"/>
<path d="M3190 2405 c0 -43 4 -75 10 -75 6 0 10 9 10 20 0 27 37 26 67 -2 27
-25 40 -19 21 11 -10 16 -10 23 0 33 19 19 15 66 -7 78 -11 5 -38 10 -60 10
l-41 0 0 -75z m84 49 c39 -15 6 -64 -43 -64 -17 0 -21 6 -21 35 0 30 3 35 24
35 13 0 31 -3 40 -6z"/>
<path d="M3370 2405 l0 -75 55 0 c30 0 55 5 55 10 0 6 -20 10 -45 10 -38 0
-45 3 -45 20 0 17 7 20 40 20 29 0 40 4 40 15 0 11 -11 15 -40 15 -33 0 -40 3
-40 20 0 17 7 20 45 20 25 0 45 5 45 10 0 6 -25 10 -55 10 l-55 0 0 -75z"/>
<path d="M1870 2390 c0 -5 16 -10 35 -10 19 0 35 5 35 10 0 6 -16 10 -35 10
-19 0 -35 -4 -35 -10z"/>
<path d="M1586 2183 c-3 -16 -10 -77 -16 -138 -15 -144 -25 -178 -62 -221 -37
-42 -77 -60 -152 -69 -37 -5 -56 -12 -56 -21 0 -11 51 -14 279 -16 l279 -3
-62 -136 c-33 -74 -71 -151 -84 -171 -42 -67 -129 -118 -202 -118 -33 0 -40
-3 -40 -20 0 -20 7 -20 290 -20 283 0 290 0 290 20 0 17 -7 20 -41 20 -33 0
-47 6 -70 31 -53 57 -48 78 130 504 l159 380 -66 3 c-36 2 -70 1 -76 -1 -6 -3
-58 -111 -116 -241 -58 -130 -106 -231 -108 -226 -2 6 -18 10 -35 10 -40 0
-94 32 -109 65 -10 23 -2 178 19 348 l6 47 -76 0 c-74 0 -75 0 -81 -27z"/>
<path d="M2313 2203 c2 -5 57 -124 122 -265 91 -200 122 -258 136 -258 12 0
21 10 25 28 16 74 52 172 120 325 41 92 74 170 74 172 0 3 -27 5 -60 5 -58 0
-60 -1 -74 -32 -8 -18 -24 -55 -36 -82 l-22 -49 -38 82 -39 81 -106 0 c-58 0
-104 -3 -102 -7z"/>
<path d="M2832 2193 c3 -10 74 -189 158 -398 165 -412 167 -422 116 -474 -16
-15 -41 -27 -68 -30 -30 -4 -44 -11 -46 -23 -3 -17 17 -18 322 -18 319 0 326
0 326 20 0 17 -7 20 -42 20 -57 1 -118 29 -166 79 -34 35 -114 195 -168 334
-6 16 17 17 305 17 251 0 311 3 311 13 0 9 -24 17 -71 24 -54 9 -81 19 -108
41 -56 45 -68 76 -85 212 -9 69 -19 142 -22 163 l-6 37 -104 0 -104 0 1 -47
c0 -27 6 -106 13 -178 7 -71 10 -140 8 -152 -7 -39 -57 -75 -110 -81 l-48 -4
-100 228 -100 229 -108 3 c-100 2 -108 1 -104 -15z"/>
</g>
</svg>
